<?xml version="1.0" encoding="UTF-8"?>
<svg xmlns="http://www.w3.org/2000/svg" xmlns:xlink="http://www.w3.org/1999/xlink" width="46px" height="55px" viewBox="0 0 46 54" version="1.1">
<g id="surface1">
<path style=" stroke:none;fill-rule:evenodd;fill:rgb(73.333333%,73.333333%,73.333333%);fill-opacity:1;" d="M 38.8125 34.773438 L 43.664062 34.773438 L 43.664062 53.878906 L 0 53.878906 L 0 34.773438 L 4.851562 34.773438 L 4.851562 49.101562 L 38.8125 49.101562 Z M 38.8125 34.773438 "/>
<path style=" stroke:none;fill-rule:nonzero;fill:rgb(96.078431%,50.196078%,14.509804%);fill-opacity:1;" d="M 10.144531 33.339844 L 33.960938 38.289062 L 34.972656 33.601562 L 11.15625 28.648438 Z M 13.273438 22.136719 L 35.328125 32.253906 L 37.398438 27.910156 L 15.347656 17.792969 Z M 19.40625 11.453125 L 38.105469 26.78125 L 41.238281 23.09375 L 22.535156 7.761719 Z M 31.488281 0.121094 L 27.566406 2.988281 L 42.074219 22.222656 L 46 19.359375 Z M 9.703125 44.324219 L 33.960938 44.324219 L 33.960938 39.550781 L 9.703125 39.550781 Z M 9.703125 44.324219 "/>
</g>
</svg>
