<svg xmlns="http://www.w3.org/2000/svg" width="46" height="46">
<g transform="matrix(6.15 0 0 6.15 23 23)" id="9lP6rq0wS4wpyIk1j9gdc"  >
<path style="stroke: rgb(208,111,125); stroke-width: 0; stroke-dasharray: none; stroke-linecap: butt; stroke-dashoffset: 0; stroke-linejoin: miter; stroke-miterlimit: 4; fill: rgb(255,123,19); fill-rule: nonzero; opacity: 1;" vector-effect="non-scaling-stroke"  transform=" translate(0, 0)" d="M 0 -3.73377 C 2.06104 -3.73377 3.73377 -2.0610399999999998 3.73377 0 C 3.73377 2.06104 2.0610399999999998 3.73377 0 3.73377 C -2.06104 3.73377 -3.73377 2.0610399999999998 -3.73377 0 C -3.73377 -2.06104 -2.0610399999999998 -3.73377 0 -3.73377 z" stroke-linecap="round" />
</g>
<g transform="matrix(0.4881628261 0 0 0.5760869565 23 23)" id="EiBInNnxpeVm-XLUBWl-1"  >
<g style="" vector-effect="non-scaling-stroke"   >
		<g transform="matrix(1 0 0 1 -1.167969 14.759766)" id="q2j0yhzRTYf4IJqUHyFoi"  >
<path style="stroke: none; stroke-width: 1; stroke-dasharray: none; stroke-linecap: butt; stroke-dashoffset: 0; stroke-linejoin: miter; stroke-miterlimit: 4; fill: rgb(255,255,255); fill-rule: evenodd; opacity: 1;" vector-effect="non-scaling-stroke"  transform=" translate(-21.832031, -37.759766)" d="M 38.8125 29.621094 L 43.664062 29.621094 L 43.664062 45.898438 L 0 45.898438 L 0 29.621094 L 4.851562 29.621094 L 4.851562 41.828125 L 38.8125 41.828125 Z M 38.8125 29.621094" stroke-linecap="round" />
</g>
		<g transform="matrix(1 0 0 1 4.8515625 -4.070313)" id="SPJCGia4fbAIzbXnXw3J_"  >
<path style="stroke: none; stroke-width: 1; stroke-dasharray: none; stroke-linecap: butt; stroke-dashoffset: 0; stroke-linejoin: miter; stroke-miterlimit: 4; fill: rgb(255,255,255); fill-rule: nonzero; opacity: 1;" vector-effect="non-scaling-stroke"  transform=" translate(-27.8515625, -18.929687)" d="M 10.144531 28.402344 L 33.960938 32.617188 L 34.972656 28.621094 L 11.15625 24.40625 Z M 13.273438 18.855469 L 35.328125 27.476562 L 37.398438 23.777344 L 15.347656 15.15625 Z M 19.40625 9.757812 L 38.105469 22.816406 L 41.238281 19.671875 L 22.535156 6.613281 Z M 31.488281 0.101562 L 27.566406 2.542969 L 42.074219 18.929688 L 46 16.488281 Z M 9.703125 37.757812 L 33.960938 37.757812 L 33.960938 33.691406 L 9.703125 33.691406 Z M 9.703125 37.757812" stroke-linecap="round" />
</g>
</g>
</g>
</svg>