<svg height="46" width="46" xmlns="http://www.w3.org/2000/svg"><path d="m0-3.73377c2.06104 0 3.73377 1.67273 3.73377 3.73377s-1.67273 3.73377-3.73377 3.73377-3.73377-1.67273-3.73377-3.73377 1.67273-3.73377 3.73377-3.73377z" fill="#ff7b13" transform="matrix(6.15 0 0 6.15 23 23)"/><g fill="#fff"><path d="m38.8125 29.621094h4.851562v16.277344h-43.664062v-16.277344h4.851562v12.207031h33.960938zm0 0" fill-rule="evenodd" transform="matrix(.48816283 0 0 .57608696 11.77225491 9.74999992)"/><path d="m10.144531 28.402344 23.816407 4.214844 1.011718-3.996094-23.816406-4.214844zm3.128907-9.546875 22.054687 8.621093 2.070313-3.699218-22.050782-8.621094zm6.132812-9.097657 18.699219 13.058594 3.132812-3.144531-18.703125-13.058594zm12.082031-9.65625-3.921875 2.441407 14.507813 16.386719 3.925781-2.441407zm-21.785156 37.65625h24.257813v-4.066406h-24.257813zm0 0" transform="matrix(.48816283 0 0 .57608696 11.77225491 9.74999992)"/></g></svg>