<svg version="1.1" id="Layer_1" xmlns="http://www.w3.org/2000/svg" xmlns:xlink="http://www.w3.org/1999/xlink" x="0px" y="0px" viewBox="0 0 104.3 123.8" style="enable-background:new 0 0 104.3 123.8;" xml:space="preserve">
 <style type="text/css">
  .st0{fill-rule:evenodd;clip-rule:evenodd;fill:#BBBBBB;}
	.st1{fill:#F58025;}
 </style>
 <g>
  <polygon class="st0" points="88,79.8 99,79.8 99,123.8 0,123.8 0,79.8 11,79.8 11,112.8 88,112.8 	">
  </polygon>
  <path class="st1" d="M23,76.5l54,11.4l2.3-10.8l-54-11.4L23,76.5z M30.1,50.7l50,23.3l4.7-10l-50-23.3L30.1,50.7z M44,26.1
		l42.4,35.3l7.1-8.5L51.1,17.6L44,26.1z M71.4,0l-8.9,6.6l32.9,44.3l8.9-6.6L71.4,0z M22,101.8h55v-11H22V101.8z">
  </path>
 </g>
</svg>