<svg xmlns="http://www.w3.org/2000/svg" width="46" height="46">
	<path d="M22.93 0C10.25 0 0 10.543 0 23.582c0 10.426 6.566 19.25 15.68 22.375 1.14.234 1.558-.508 1.558-1.133 0-.547-.039-2.422-.039-4.375-6.379 1.406-7.707-2.808-7.707-2.808-1.027-2.735-2.543-3.438-2.543-3.438-2.09-1.445.149-1.445.149-1.445 2.316.156 3.53 2.422 3.53 2.422 2.052 3.59 5.356 2.578 6.684 1.953.192-1.524.797-2.578 1.442-3.164-5.086-.547-10.438-2.578-10.438-11.637 0-2.574.91-4.684 2.352-6.324-.227-.586-1.023-3.008.227-6.246 0 0 1.937-.625 6.304 2.422a21.386 21.386 0 0 1 5.73-.782c1.938 0 3.91.274 5.735.782 4.367-3.047 6.3-2.422 6.3-2.422 1.255 3.238.458 5.66.231 6.246 1.48 1.64 2.352 3.75 2.352 6.324 0 9.059-5.352 11.05-10.477 11.637.836.742 1.555 2.148 1.555 4.375 0 3.16-.035 5.699-.035 6.48 0 .625.418 1.367 1.555 1.133 9.113-3.125 15.68-11.95 15.68-22.375C45.862 10.543 35.574 0 22.93 0Zm0 0" style="stroke:none;fill-rule:evenodd;fill:#24292f;fill-opacity:1"/>
</svg>
