<svg xmlns="http://www.w3.org/2000/svg" width="46px" height="46px">
<path style=" stroke:none;fill-rule:evenodd;fill:rgb(14.117647%,16.078431%,18.431373%);fill-opacity:1;" d="M 22.929688 0 C 10.25 0 0 10.542969 0 23.582031 C 0 34.007812 6.566406 42.832031 15.679688 45.957031 C 16.820312 46.191406 17.238281 45.449219 17.238281 44.824219 C 17.238281 44.277344 17.199219 42.402344 17.199219 40.449219 C 10.820312 41.855469 9.492188 37.640625 9.492188 37.640625 C 8.464844 34.90625 6.949219 34.203125 6.949219 34.203125 C 4.859375 32.757812 7.097656 32.757812 7.097656 32.757812 C 9.414062 32.914062 10.628906 35.179688 10.628906 35.179688 C 12.679688 38.769531 15.984375 37.757812 17.3125 37.132812 C 17.503906 35.609375 18.109375 34.554688 18.753906 33.96875 C 13.667969 33.421875 8.316406 31.390625 8.316406 22.332031 C 8.316406 19.757812 9.226562 17.648438 10.667969 16.007812 C 10.441406 15.421875 9.644531 13 10.894531 9.761719 C 10.894531 9.761719 12.832031 9.136719 17.199219 12.183594 C 19.066406 11.664062 20.996094 11.402344 22.929688 11.402344 C 24.867188 11.402344 26.839844 11.675781 28.664062 12.183594 C 33.03125 9.136719 34.964844 9.761719 34.964844 9.761719 C 36.21875 13 35.421875 15.421875 35.195312 16.007812 C 36.675781 17.648438 37.546875 19.757812 37.546875 22.332031 C 37.546875 31.390625 32.195312 33.382812 27.070312 33.96875 C 27.90625 34.710938 28.625 36.117188 28.625 38.34375 C 28.625 41.503906 28.589844 44.042969 28.589844 44.824219 C 28.589844 45.449219 29.007812 46.191406 30.144531 45.957031 C 39.257812 42.832031 45.824219 34.007812 45.824219 23.582031 C 45.863281 10.542969 35.574219 0 22.929688 0 Z M 22.929688 0 "/>
</svg>

