<svg height="46" width="46" xmlns="http://www.w3.org/2000/svg"><path d="m22.929688 0c-12.679688 0-22.929688 10.542969-22.929688 23.582031 0 10.425781 6.566406 19.25 15.679688 22.375 1.140624.234375 1.558593-.507812 1.558593-1.132812 0-.546875-.039062-2.421875-.039062-4.375-6.378907 1.40625-7.707031-2.808594-7.707031-2.808594-1.027344-2.734375-2.542969-3.4375-2.542969-3.4375-2.089844-1.445313.148437-1.445313.148437-1.445313 2.316406.15625 3.53125 2.421876 3.53125 2.421876 2.050782 3.589843 5.355469 2.578124 6.683594 1.953124.191406-1.523437.796875-2.578124 1.441406-3.164062-5.085937-.546875-10.4375-2.578125-10.4375-11.636719 0-2.574219.910156-4.683593 2.351563-6.324219-.226563-.585937-1.023438-3.007812.226562-6.246093 0 0 1.9375-.625 6.304688 2.421875 1.867187-.519532 3.796875-.78125 5.730469-.78125 1.9375 0 3.910156.273437 5.734374.78125 4.367188-3.046875 6.300782-2.421875 6.300782-2.421875 1.253906 3.238281.457031 5.660156.230468 6.246093 1.480469 1.640626 2.351563 3.75 2.351563 6.324219 0 9.058594-5.351563 11.050781-10.476563 11.636719.835938.742188 1.554688 2.148438 1.554688 4.375 0 3.160156-.035156 5.699219-.035156 6.480469 0 .625.417968 1.367187 1.554687 1.132812 9.113281-3.125 15.679688-11.949219 15.679688-22.375.039062-13.039062-10.25-23.582031-22.894531-23.582031zm0 0" fill="#24292f" fill-rule="evenodd"/></svg>