<svg fill="none" height="46" viewBox="-2 0 77 79" width="46" xmlns="http://www.w3.org/2000/svg" xmlns:xlink="http://www.w3.org/1999/xlink"><linearGradient id="a" gradientUnits="userSpaceOnUse" x1="37.0692" x2="37.0692" y1="0" y2="79"><stop offset="0" stop-color="#6364ff"/><stop offset="1" stop-color="#563acc"/></linearGradient><path d="m73.8393 17.4898c-1.142-8.48815-8.5399-15.17745-17.3097-16.47366-1.4796-.219025-7.0855-1.01614-20.0714-1.01614h-.097c-12.9895 0-15.7762.797115-17.2558 1.01614-8.5256 1.2603-16.31141 7.27098-18.200403 15.85966-.90858224 4.2298-1.005546 8.9191-.8367576 13.2207.2406126 6.1686.2872986 12.3265.8475306 18.47.3873 4.0809 1.06295 8.1292 2.02186 12.1147 1.79562 7.3608 9.06427 13.4864 16.18567 15.9854 7.6245 2.6062 15.8241 3.0389 23.6806 1.2496.8643-.2011 1.7178-.4345 2.5606-.7002 1.9105-.6068 4.1478-1.2855 5.7926-2.4775.0226-.0168.0411-.0384.0541-.0632.0131-.0249.0204-.0524.0213-.0805v-5.9532c-.0004-.0262-.0066-.052-.0183-.0755s-.0284-.0441-.0491-.0603-.0447-.0275-.0703-.0332-.0522-.0056-.0777.0003c-5.0336 1.2021-10.1917 1.8048-15.3669 1.7953-8.9063 0-11.3016-4.2262-11.9876-5.9856-.5513-1.5206-.9014-3.1067-1.0414-4.718-.0015-.0271.0035-.0541.0145-.0789.0109-.0248.0276-.0466.0486-.0637.021-.0172.0457-.0291.0722-.0349s.0539-.0053.0802.0015c4.9497 1.194 10.0237 1.7967 15.1155 1.7953 1.2246 0 2.4456 0 3.6702-.0323 5.1211-.1436 10.5187-.4057 15.5572-1.3895.1257-.0252.2514-.0467.3591-.079 7.9474-1.5261 15.5106-6.3159 16.2791-18.445.0287-.4775.1006-5.0017.1006-5.4972.0035-1.684.5422-11.946-.0791-18.2511z" fill="url(#a)"/><path d="m61.2484 27.0263v21.0877h-8.3568v-20.4665c0-4.3087-1.7956-6.5062-5.4479-6.5062-4.015 0-6.026 2.5996-6.026 7.7342v11.2027h-8.3066v-11.2027c0-5.1346-2.0146-7.7342-6.0296-7.7342-3.6308 0-5.4444 2.1975-5.4444 6.5062v20.4665h-8.3532v-21.0877c0-4.3087 1.1001-7.7317 3.3004-10.2691 2.2696-2.5314 5.2468-3.8312 8.9421-3.8312 4.2772 0 7.5093 1.6445 9.6641 4.9299l2.0793 3.4901 2.0829-3.4901c2.1547-3.2854 5.3868-4.9299 9.6568-4.9299 3.6918 0 6.6689 1.2998 8.9458 3.8312 2.1978 2.535 3.2955 5.958 3.2931 10.2691z" fill="#fff"/></svg>