<?xml version="1.0" encoding="UTF-8" standalone="no"?>
<!-- Created with Inkscape (http://www.inkscape.org/) -->

<svg
   xmlns:dc="http://purl.org/dc/elements/1.1/"
   xmlns:cc="http://creativecommons.org/ns#"
   xmlns:rdf="http://www.w3.org/1999/02/22-rdf-syntax-ns#"
   xmlns:svg="http://www.w3.org/2000/svg"
   xmlns="http://www.w3.org/2000/svg"
   xmlns:sodipodi="http://sodipodi.sourceforge.net/DTD/sodipodi-0.dtd"
   xmlns:inkscape="http://www.inkscape.org/namespaces/inkscape"
   width="400"
   height="200"
   id="svg3550"
   version="1.1"
   inkscape:version="0.48.2 r9819"
   sodipodi:docname="New document 9">
  <defs
     id="defs3552" />
  <sodipodi:namedview
     id="base"
     pagecolor="#ffffff"
     bordercolor="#666666"
     borderopacity="1.0"
     inkscape:pageopacity="0.0"
     inkscape:pageshadow="2"
     inkscape:zoom="8.9263916"
     inkscape:cx="14.748401"
     inkscape:cy="150.23988"
     inkscape:document-units="px"
     inkscape:current-layer="layer1"
     showgrid="true"
     inkscape:snap-global="false">
    <inkscape:grid
       type="xygrid"
       id="grid3558"
       empspacing="5"
       visible="true"
       enabled="true"
       snapvisiblegridlinesonly="true" />
  </sodipodi:namedview>
  <metadata
     id="metadata3555">
    <rdf:RDF>
      <cc:Work
         rdf:about="">
        <dc:format>image/svg+xml</dc:format>
        <dc:type
           rdf:resource="http://purl.org/dc/dcmitype/StillImage" />
        <dc:title></dc:title>
      </cc:Work>
    </rdf:RDF>
  </metadata>
  <g
     inkscape:label="Layer 1"
     inkscape:groupmode="layer"
     id="layer1"
     transform="translate(0,-852.36218)">
    <path
       style="color:#000000;fill:#4e4e4e;fill-opacity:0.94117647;fill-rule:nonzero;stroke:none;stroke-width:1;marker:none;visibility:visible;display:inline;overflow:visible;enable-background:accumulate"
       d="m 14,857.36218 c -0.51124,0 -1.01451,0.20201 -1.40625,0.59375 L 11,859.54968 c 0.70051,0 1.3332,0.25386 1.84375,0.65625 l 0.4375,-0.4375 c 0.19587,-0.19587 0.46313,-0.3125 0.71875,-0.3125 0.25562,0 0.52288,0.11663 0.71875,0.3125 l 1.0625,1.0625 c 0.39174,0.39174 0.39174,1.04576 0,1.4375 l -1.0625,1.0625 -1.5,1.5 c -0.39174,0.39174 -1.04576,0.39174 -1.4375,0 l -1.0625,-1.0625 c -0.0772,-0.0772 -0.10948,-0.1877 -0.15625,-0.28125 l -1.3125,1.3125 1.84375,1.84375 c 0.78347,0.78347 2.02903,0.78347 2.8125,0 l 3.6875,-3.6875 c 0.783469,-0.78347 0.783469,-2.02903 0,-2.8125 l -2.1875,-2.1875 C 15.01451,857.56419 14.51124,857.36218 14,857.36218 z m -3,3 c -0.51124,0 -1.01451,0.20201 -1.40625,0.59375 l -3.6875,3.6875 c -0.78347,0.78347 -0.78347,2.02903 0,2.8125 l 2.1875,2.1875 c 0.78347,0.78347 2.02903,0.78347 2.8125,0 L 12.5,868.04968 c -0.70051,0 -1.3332,-0.25386 -1.84375,-0.65625 l -0.4375,0.4375 c -0.39174,0.39174 -1.04576,0.39174 -1.4375,0 l -1.0625,-1.0625 c -0.39174,-0.39174 -0.39174,-1.04576 0,-1.4375 l 1.0625,-1.0625 1.5,-1.5 c 0.19587,-0.19587 0.46313,-0.3125 0.71875,-0.3125 0.25562,0 0.52288,0.11663 0.71875,0.3125 l 1.0625,1.0625 c 0.0772,0.0772 0.10948,0.1877 0.15625,0.28125 l 1.3125,-1.3125 -1.84375,-1.84375 C 12.01451,860.56419 11.51124,860.36218 11,860.36218 z"
       id="rect4010"
       inkscape:connector-curvature="0" />
    <path
       inkscape:connector-curvature="0"
       id="path4044"
       d="m 14,877.36218 c -0.51124,0 -1.01451,0.20201 -1.40625,0.59375 L 11,879.54968 c 0.70051,0 1.3332,0.25386 1.84375,0.65625 l 0.4375,-0.4375 c 0.19587,-0.19587 0.46313,-0.3125 0.71875,-0.3125 0.25562,0 0.52288,0.11663 0.71875,0.3125 l 1.0625,1.0625 c 0.39174,0.39174 0.39174,1.04576 0,1.4375 l -1.0625,1.0625 -1.5,1.5 c -0.39174,0.39174 -1.04576,0.39174 -1.4375,0 l -1.0625,-1.0625 c -0.0772,-0.0772 -0.10948,-0.1877 -0.15625,-0.28125 l -1.3125,1.3125 1.84375,1.84375 c 0.78347,0.78347 2.02903,0.78347 2.8125,0 l 3.6875,-3.6875 c 0.783469,-0.78347 0.783469,-2.02903 0,-2.8125 l -2.1875,-2.1875 C 15.01451,877.56419 14.51124,877.36218 14,877.36218 z m -3,3 c -0.51124,0 -1.01451,0.20201 -1.40625,0.59375 l -3.6875,3.6875 c -0.78347,0.78347 -0.78347,2.02903 0,2.8125 l 2.1875,2.1875 c 0.78347,0.78347 2.02903,0.78347 2.8125,0 L 12.5,888.04968 c -0.70051,0 -1.3332,-0.25386 -1.84375,-0.65625 l -0.4375,0.4375 c -0.39174,0.39174 -1.04576,0.39174 -1.4375,0 l -1.0625,-1.0625 c -0.39174,-0.39174 -0.39174,-1.04576 0,-1.4375 l 1.0625,-1.0625 1.5,-1.5 c 0.19587,-0.19587 0.46313,-0.3125 0.71875,-0.3125 0.25562,0 0.52288,0.11663 0.71875,0.3125 l 1.0625,1.0625 c 0.0772,0.0772 0.10948,0.1877 0.15625,0.28125 l 1.3125,-1.3125 -1.84375,-1.84375 C 12.01451,880.56419 11.51124,880.36218 11,880.36218 z"
       style="color:#000000;fill:#ffffff;fill-opacity:1;fill-rule:nonzero;stroke:none;stroke-width:1;marker:none;visibility:visible;display:inline;overflow:visible;enable-background:accumulate" />
    <path
       inkscape:connector-curvature="0"
       id="path6649"
       d="m 14,897.36218 c -0.51124,0 -1.01451,0.20201 -1.40625,0.59375 L 11,899.54968 c 0.70051,0 1.3332,0.25386 1.84375,0.65625 l 0.4375,-0.4375 c 0.19587,-0.19587 0.46313,-0.3125 0.71875,-0.3125 0.25562,0 0.52288,0.11663 0.71875,0.3125 l 1.0625,1.0625 c 0.39174,0.39174 0.39174,1.04576 0,1.4375 l -1.0625,1.0625 -1.5,1.5 c -0.39174,0.39174 -1.04576,0.39174 -1.4375,0 l -1.0625,-1.0625 c -0.0772,-0.0772 -0.10948,-0.1877 -0.15625,-0.28125 l -1.3125,1.3125 1.84375,1.84375 c 0.78347,0.78347 2.02903,0.78347 2.8125,0 l 3.6875,-3.6875 c 0.783469,-0.78347 0.783469,-2.02903 0,-2.8125 l -2.1875,-2.1875 C 15.01451,897.56419 14.51124,897.36218 14,897.36218 z m -3,3 c -0.51124,0 -1.01451,0.20201 -1.40625,0.59375 l -3.6875,3.6875 c -0.78347,0.78347 -0.78347,2.02903 0,2.8125 l 2.1875,2.1875 c 0.78347,0.78347 2.02903,0.78347 2.8125,0 L 12.5,908.04968 c -0.70051,0 -1.3332,-0.25386 -1.84375,-0.65625 l -0.4375,0.4375 c -0.39174,0.39174 -1.04576,0.39174 -1.4375,0 l -1.0625,-1.0625 c -0.39174,-0.39174 -0.39174,-1.04576 0,-1.4375 l 1.0625,-1.0625 1.5,-1.5 c 0.19587,-0.19587 0.46313,-0.3125 0.71875,-0.3125 0.25562,0 0.52288,0.11663 0.71875,0.3125 l 1.0625,1.0625 c 0.0772,0.0772 0.10948,0.1877 0.15625,0.28125 l 1.3125,-1.3125 -1.84375,-1.84375 C 12.01451,900.56419 11.51124,900.36218 11,900.36218 z"
       style="color:#000000;fill:#7b7b7b;fill-opacity:1;fill-rule:nonzero;stroke:none;stroke-width:1;marker:none;visibility:visible;display:inline;overflow:visible;enable-background:accumulate" />
  </g>
</svg>
