<svg height="200" width="400" xmlns="http://www.w3.org/2000/svg"><g transform="translate(0 -852.36218)"><path d="m14 857.36218c-.51124 0-1.01451.20201-1.40625.59375l-1.59375 1.59375c.70051 0 1.3332.25386 1.84375.65625l.4375-.4375c.19587-.19587.46313-.3125.71875-.3125s.52288.11663.71875.3125l1.0625 1.0625c.39174.39174.39174 1.04576 0 1.4375l-1.0625 1.0625-1.5 1.5c-.39174.39174-1.04576.39174-1.4375 0l-1.0625-1.0625c-.0772-.0772-.10948-.1877-.15625-.28125l-1.3125 1.3125 1.84375 1.84375c.78347.78347 2.02903.78347 2.8125 0l3.6875-3.6875c.783469-.78347.783469-2.02903 0-2.8125l-2.1875-2.1875c-.39174-.39174-.89501-.59375-1.40625-.59375zm-3 3c-.51124 0-1.01451.20201-1.40625.59375l-3.6875 3.6875c-.78347.78347-.78347 2.02903 0 2.8125l2.1875 2.1875c.78347.78347 2.02903.78347 2.8125 0l1.59375-1.59375c-.70051 0-1.3332-.25386-1.84375-.65625l-.4375.4375c-.39174.39174-1.04576.39174-1.4375 0l-1.0625-1.0625c-.39174-.39174-.39174-1.04576 0-1.4375l1.0625-1.0625 1.5-1.5c.19587-.19587.46313-.3125.71875-.3125s.52288.11663.71875.3125l1.0625 1.0625c.0772.0772.10948.1877.15625.28125l1.3125-1.3125-1.84375-1.84375c-.39174-.39174-.89501-.59375-1.40625-.59375z" fill="#4e4e4e" fill-opacity=".941176"/><path d="m14 877.36218c-.51124 0-1.01451.20201-1.40625.59375l-1.59375 1.59375c.70051 0 1.3332.25386 1.84375.65625l.4375-.4375c.19587-.19587.46313-.3125.71875-.3125s.52288.11663.71875.3125l1.0625 1.0625c.39174.39174.39174 1.04576 0 1.4375l-1.0625 1.0625-1.5 1.5c-.39174.39174-1.04576.39174-1.4375 0l-1.0625-1.0625c-.0772-.0772-.10948-.1877-.15625-.28125l-1.3125 1.3125 1.84375 1.84375c.78347.78347 2.02903.78347 2.8125 0l3.6875-3.6875c.783469-.78347.783469-2.02903 0-2.8125l-2.1875-2.1875c-.39174-.39174-.89501-.59375-1.40625-.59375zm-3 3c-.51124 0-1.01451.20201-1.40625.59375l-3.6875 3.6875c-.78347.78347-.78347 2.02903 0 2.8125l2.1875 2.1875c.78347.78347 2.02903.78347 2.8125 0l1.59375-1.59375c-.70051 0-1.3332-.25386-1.84375-.65625l-.4375.4375c-.39174.39174-1.04576.39174-1.4375 0l-1.0625-1.0625c-.39174-.39174-.39174-1.04576 0-1.4375l1.0625-1.0625 1.5-1.5c.19587-.19587.46313-.3125.71875-.3125s.52288.11663.71875.3125l1.0625 1.0625c.0772.0772.10948.1877.15625.28125l1.3125-1.3125-1.84375-1.84375c-.39174-.39174-.89501-.59375-1.40625-.59375z" fill="#fff"/><path d="m14 897.36218c-.51124 0-1.01451.20201-1.40625.59375l-1.59375 1.59375c.70051 0 1.3332.25386 1.84375.65625l.4375-.4375c.19587-.19587.46313-.3125.71875-.3125s.52288.11663.71875.3125l1.0625 1.0625c.39174.39174.39174 1.04576 0 1.4375l-1.0625 1.0625-1.5 1.5c-.39174.39174-1.04576.39174-1.4375 0l-1.0625-1.0625c-.0772-.0772-.10948-.1877-.15625-.28125l-1.3125 1.3125 1.84375 1.84375c.78347.78347 2.02903.78347 2.8125 0l3.6875-3.6875c.783469-.78347.783469-2.02903 0-2.8125l-2.1875-2.1875c-.39174-.39174-.89501-.59375-1.40625-.59375zm-3 3c-.51124 0-1.01451.20201-1.40625.59375l-3.6875 3.6875c-.78347.78347-.78347 2.02903 0 2.8125l2.1875 2.1875c.78347.78347 2.02903.78347 2.8125 0l1.59375-1.59375c-.70051 0-1.3332-.25386-1.84375-.65625l-.4375.4375c-.39174.39174-1.04576.39174-1.4375 0l-1.0625-1.0625c-.39174-.39174-.39174-1.04576 0-1.4375l1.0625-1.0625 1.5-1.5c.19587-.19587.46313-.3125.71875-.3125s.52288.11663.71875.3125l1.0625 1.0625c.0772.0772.10948.1877.15625.28125l1.3125-1.3125-1.84375-1.84375c-.39174-.39174-.89501-.59375-1.40625-.59375z" fill="#7b7b7b"/></g></svg>