<svg xmlns="http://www.w3.org/2000/svg" width="46px" height="46px">
<path style=" stroke:none;fill-rule:nonzero;fill:rgb(10.588235%,61.568627%,94.117647%);fill-opacity:1;" d="M 46 23 C 46 35.703125 35.703125 46 23 46 C 10.296875 46 0 35.703125 0 23 C 0 10.296875 10.296875 0 23 0 C 35.703125 0 46 10.296875 46 23 Z M 46 23 "/>
<path style=" stroke:none;fill-rule:nonzero;fill:rgb(100%,100%,100%);fill-opacity:1;" d="M 18.789062 35.132812 C 28.992188 35.132812 34.570312 26.679688 34.570312 19.355469 C 34.570312 19.113281 34.570312 18.871094 34.558594 18.640625 C 35.636719 17.859375 36.582031 16.882812 37.328125 15.765625 C 36.339844 16.203125 35.269531 16.503906 34.144531 16.640625 C 35.292969 15.949219 36.167969 14.871094 36.582031 13.570312 C 35.511719 14.203125 34.328125 14.664062 33.0625 14.914062 C 32.050781 13.835938 30.613281 13.167969 29.015625 13.167969 C 25.957031 13.167969 23.472656 15.652344 23.472656 18.710938 C 23.472656 19.148438 23.515625 19.574219 23.621094 19.976562 C 19.007812 19.746094 14.925781 17.539062 12.191406 14.179688 C 11.71875 14.996094 11.441406 15.949219 11.441406 16.960938 C 11.441406 18.882812 12.421875 20.585938 13.914062 21.574219 C 13.007812 21.550781 12.15625 21.296875 11.40625 20.882812 C 11.40625 20.90625 11.40625 20.929688 11.40625 20.953125 C 11.40625 23.644531 13.316406 25.875 15.859375 26.390625 C 15.398438 26.519531 14.902344 26.589844 14.398438 26.589844 C 14.042969 26.589844 13.695312 26.554688 13.351562 26.484375 C 14.054688 28.691406 16.101562 30.289062 18.527344 30.335938 C 16.628906 31.820312 14.238281 32.707031 11.636719 32.707031 C 11.191406 32.707031 10.753906 32.683594 10.316406 32.625 C 12.742188 34.210938 15.664062 35.132812 18.789062 35.132812 "/>
</svg>