<svg xmlns="http://www.w3.org/2000/svg" width="256" height="256" viewBox="0 0 256 256">
  <g transform="translate(-640 8)">
    <linearGradient id="a" x1="1603.924" x2="1698.034" y1="1483.083" y2="1483.083" gradientTransform="rotate(9.6 9049.018 -4722.716)"
      gradientUnits="userSpaceOnUse">
      <stop offset="0" stop-color="#89C442" />
      <stop offset="1" stop-color="#74B844" />
    </linearGradient>
    <path fill="url(#a)"
      d="M674.318 92.395c2.234 2.608 46.097 17.218 61.347 34.97 15.25 17.754 21.907 33.598 19.754 48.832-2.15 15.234-11.47 14.982-15.54 20.53-4.07 5.547-9.69 12.388-20.49 11.66-14.14-.948-28.72-8.014-39.25-32.54-10.53-24.527-9.72-47.567-8.88-60.35.84-12.78 3.04-23.102 3.04-23.102z" />
    <linearGradient id="b" x1="1606.047" x2="1687.254" y1="1478.166" y2="1478.166" gradientTransform="rotate(9.6 1169.206 -709.023)"
      gradientUnits="userSpaceOnUse">
      <stop offset="0" stop-color="#74B844" />
      <stop offset="1" stop-color="#4A9634" />
    </linearGradient>
    <path fill="url(#b)" d="m1239.667 1476.602 65.69 97.927-3.028 3.38" transform="translate(-567.983 -1376)" />
    <path fill="#3c3c3b" fill-rule="evenodd"
      d="m419.922 236.713.618-4.337c17.52-9.335 39.344-12.934 57.105-21.945 5.328 2.4 7.697-1.06 13.38-.74 2.062 1.86-2.594 4.35 2.974 3.97 12.65 1.68 24.97-.68 37.41-1.74 13.12-1.12 26.15.13 39.02-.63 4.11-.24 10.44-5.93 15.48-3.1 2.28 4.13-7.44 4.49-4.83 9.05 25.76 6.06 90.19 31.68 101.21 3.81.15 1.7-1.93 5.06 1.11 4.59 21.72-9.72 58.63-30.71 65.13-36.21 7.14-6.04 16.66-5.85 26-8 16.82-3.87 34.77-7.81 49.33-16.29 9 6.25 27.84 9.36 37.91 7.18 10.51-2.28 26.82-19.73 35.55-25.9 3.43-2.42 8.45-7.13 12.14-4.46-2.48 1.7.44 6.68-2.6 5.82-1.59-3.04-4.76.47-7.07-.12-8.79 7.21-17.92 13.96-26.88 20.94-4.18 2.57 4.03 5.23-.87 6.07-23.14 4.6-58.38-6.92-72.968 9.07-23.115 7.91-44.98 9.92-67.76 22.2-13.09 7.06-29.108 19.9-42.734 26.65-2.31 1.15-5.693 1.55-8.423 3.23-3.32 2.04-4.136 4.6-6.937 5.204-6.98 1.503-21.4-2.14-30.48-3.46-30.28-4.4-62.61-16.746-91.184-18.31-11.3-.62-24.64 1.17-37.412 1.744-27.15 1.226-44.13 1.87-65.9 9.19-8.9 2.997-22.59 10.93-28.364 6.58z"
      clip-rule="evenodd" />
    <linearGradient id="c" x1="1280.966" x2="1438.704" y1="1562.831" y2="1562.831" gradientTransform="rotate(161.46 940.413 -772.15)"
      gradientUnits="userSpaceOnUse">
      <stop offset="0" stop-color="#C1EA71" />
      <stop offset="1" stop-color="#ACDA55" />
    </linearGradient>
    <path fill="url(#c)"
      d="M839.46 0c-3.05 4.944-72.6 40.807-93.475 74.472-20.873 33.665-26.828 60.172-19.26 85.09 7.566 24.914 22.03 23.792 30.275 32.008 8.246 8.22 19.432 18.193 37.3 14.166 23.395-5.275 45.94-20.89 57.155-64.65 11.214-43.762 3.86-82.083-.88-103.242C845.838 16.687 839.462 0 839.462 0z" />
    <linearGradient id="d" x1="1284.556" x2="1422.002" y1="1554.398" y2="1554.398" gradientTransform="rotate(161.46 1112.102 -37.725)"
      gradientUnits="userSpaceOnUse">
      <stop offset="0" stop-color="#ACDA55" />
      <stop offset="1" stop-color="#89C442" />
    </linearGradient>
    <path fill="url(#d)" d="m1406.26 1383.39-84.338 180.893 4.95 4.97" transform="translate(-567.983 -1376)" />
  </g>
</svg>