<svg xmlns="http://www.w3.org/2000/svg" xmlns:xlink="http://www.w3.org/1999/xlink" width="25" height="41">
  <defs>
    <linearGradient id="c" gradientUnits="userSpaceOnUse" x1="0" y1="38.71" x2="0" y2="1.144">
      <stop offset="0" stop-color="#126fc6"/>
      <stop offset="1" stop-color="#4c9cd1"/>
    </linearGradient>
    <linearGradient id="d" gradientUnits="userSpaceOnUse" x1="0" y1="20.197" x2="0" y2="1.144">
      <stop offset="0" stop-color="#2e6c97"/>
      <stop offset="1" stop-color="#3883b7"/>
    </linearGradient>
  </defs>
  <path fill="#fff" d="M6.329 5.286h12.625v14.5H6.329z"/>
  <path d="M12.594 1.323c-6.573 0-12.044 5.691-12.044 11.866 0 2.778 1.564 6.308 2.694 8.746l9.306 17.872 9.262-17.872c1.13-2.438 2.738-5.791 2.738-8.746 0-6.175-5.383-11.866-11.956-11.866zm0 7.155c2.584.017 4.679 2.122 4.679 4.71s-2.095 4.663-4.679 4.679c-2.584-.017-4.679-2.09-4.679-4.679 0-2.588 2.095-4.693 4.679-4.71z" fill="url(#c)" stroke="url(#d)" stroke-width="1.1" stroke-linecap="round"/>
  <path d="M12.581 2.43c-5.944 0-10.938 5.219-10.938 10.75 0 2.359 1.443 5.832 2.563 8.25l.031.031 8.313 15.969 8.25-15.969.031-.031c1.135-2.448 2.625-5.706 2.625-8.25 0-5.538-4.931-10.75-10.875-10.75zm0 4.969c3.168.021 5.781 2.601 5.781 5.781 0 3.18-2.613 5.761-5.781 5.781-3.168-.02-5.75-2.61-5.75-5.781 0-3.172 2.582-5.761 5.75-5.781z" fill="none" stroke="#fff" stroke-width="1.1" stroke-linecap="round" stroke-opacity=".122"/>
</svg>
