<?xml version="1.0" encoding="UTF-8" standalone="no"?>
<!-- Created with Inkscape (http://www.inkscape.org/) -->

<svg
   xmlns:dc="http://purl.org/dc/elements/1.1/"
   xmlns:cc="http://creativecommons.org/ns#"
   xmlns:rdf="http://www.w3.org/1999/02/22-rdf-syntax-ns#"
   xmlns:svg="http://www.w3.org/2000/svg"
   xmlns="http://www.w3.org/2000/svg"
   xmlns:sodipodi="http://sodipodi.sourceforge.net/DTD/sodipodi-0.dtd"
   xmlns:inkscape="http://www.inkscape.org/namespaces/inkscape"
   width="1136.8655"
   height="301.66055"
   id="svg3469"
   version="1.1"
   inkscape:version="0.48.4 r9939"
   sodipodi:docname="leaflet-logo">
  <defs
     id="defs3471">
    <linearGradient
       x1="0"
       y1="0"
       x2="1"
       y2="0"
       id="linearGradient134"
       gradientUnits="userSpaceOnUse"
       gradientTransform="matrix(-130.32564,-43.68013,43.68013,-130.32564,1430.2539,1545.0225)"
       spreadMethod="pad">
      <stop
         id="stop136"
         style="stop-color:#acda55;stop-opacity:1"
         offset="0" />
      <stop
         id="stop138"
         style="stop-color:#89c442;stop-opacity:1"
         offset="1" />
    </linearGradient>
    <linearGradient
       x1="0"
       y1="0"
       x2="1"
       y2="0"
       id="linearGradient114"
       gradientUnits="userSpaceOnUse"
       gradientTransform="matrix(-149.56836,-50.129547,50.129547,-149.56836,1436.3389,1538.168)"
       spreadMethod="pad">
      <stop
         id="stop116"
         style="stop-color:#c1ea71;stop-opacity:1"
         offset="0" />
      <stop
         id="stop118"
         style="stop-color:#acda55;stop-opacity:1"
         offset="1" />
    </linearGradient>
    <clipPath
       id="clipPath94">
      <path
         d="m 0,3000 2000,0 L 2000,0 0,0 0,3000 z"
         inkscape:connector-curvature="0"
         id="path96" />
    </clipPath>
    <clipPath
       id="clipPath74">
      <path
         d="m 1302.329,1422.085 3.028,3.385 -65.69,97.928 62.662,-101.313 z"
         inkscape:connector-curvature="0"
         id="path76" />
    </clipPath>
    <linearGradient
       x1="0"
       y1="0"
       x2="1"
       y2="0"
       id="linearGradient82"
       gradientUnits="userSpaceOnUse"
       gradientTransform="matrix(80.053894,-13.642777,-13.642777,-80.053879,1232.1621,1479.3613)"
       spreadMethod="pad">
      <stop
         id="stop84"
         style="stop-color:#74b844;stop-opacity:1"
         offset="0" />
      <stop
         id="stop86"
         style="stop-color:#4a9634;stop-opacity:1"
         offset="1" />
    </linearGradient>
    <clipPath
       id="clipPath54">
      <path
         d="m 1235.257,1504.502 c -0.841,-12.783 -1.649,-35.823 8.88,-60.349 l 0,0 c 10.527,-24.527 25.109,-31.592 39.248,-32.542 l 0,0 c 10.794,-0.726 16.416,6.115 20.484,11.662 l 0,0 c 4.065,5.547 13.383,5.295 15.532,20.529 l 0,0 c 2.154,15.235 -4.505,31.078 -19.753,48.833 l 0,0 c -15.251,17.752 -59.113,32.362 -61.347,34.97 l 0,0 c 0,0 -2.201,-10.321 -3.044,-23.103"
         inkscape:connector-curvature="0"
         id="path56" />
    </clipPath>
    <linearGradient
       x1="0"
       y1="0"
       x2="1"
       y2="0"
       id="linearGradient62"
       gradientUnits="userSpaceOnUse"
       gradientTransform="matrix(92.773987,-15.810547,-15.810547,-92.773972,1229.2422,1474.8701)"
       spreadMethod="pad">
      <stop
         id="stop64"
         style="stop-color:#89c442;stop-opacity:1"
         offset="0" />
      <stop
         id="stop66"
         style="stop-color:#74b844;stop-opacity:1"
         offset="1" />
    </linearGradient>
    <clipPath
       id="clipPath18">
      <path
         d="m 0,3000 2000,0 L 2000,0 0,0 0,3000 z"
         inkscape:connector-curvature="0"
         id="path20" />
    </clipPath>
  </defs>
  <sodipodi:namedview
     id="base"
     pagecolor="#ffffff"
     bordercolor="#666666"
     borderopacity="1.0"
     inkscape:pageopacity="0.0"
     inkscape:pageshadow="2"
     inkscape:zoom="0.98994949"
     inkscape:cx="663.57695"
     inkscape:cy="150.85061"
     inkscape:document-units="px"
     inkscape:current-layer="layer1"
     showgrid="false"
     fit-margin-top="0"
     fit-margin-left="0"
     fit-margin-right="0"
     fit-margin-bottom="0"
     inkscape:window-width="1680"
     inkscape:window-height="1028"
     inkscape:window-x="1358"
     inkscape:window-y="-8"
     inkscape:window-maximized="1">
    <inkscape:grid
       type="xygrid"
       id="grid3602"
       empspacing="5"
       visible="true"
       enabled="true"
       snapvisiblegridlinesonly="true"
       originx="225.5756px"
       originy="-520.59834px" />
  </sodipodi:namedview>
  <metadata
     id="metadata3474">
    <rdf:RDF>
      <cc:Work
         rdf:about="">
        <dc:format>image/svg+xml</dc:format>
        <dc:type
           rdf:resource="http://purl.org/dc/dcmitype/StillImage" />
        <dc:title></dc:title>
      </cc:Work>
    </rdf:RDF>
  </metadata>
  <g
     inkscape:label="Ebene 1"
     inkscape:groupmode="layer"
     id="layer1"
     transform="translate(225.5756,-230.1033)">
    <g
       id="g14"
       transform="matrix(1.25,0,0,-1.25,-935.55548,2260.1033)">
      <g
         id="g16"
         clip-path="url(#clipPath18)">
        <g
           id="g22"
           transform="translate(706.1289,1469.3672)">
          <path
             style="fill:#6f6f6e;fill-opacity:1;fill-rule:nonzero;stroke:none"
             id="path24"
             inkscape:connector-curvature="0"
             d="m 0,0 c -16.973,-17.26 -34.34,-25.889 -52.1,-25.889 -5.156,0 -10.116,0.664 -14.878,1.989 -4.763,1.324 -10.564,3.56 -17.402,6.712 -6.84,3.151 -12.874,5.442 -18.1,6.875 -9.668,-10.599 -18.407,-15.898 -26.211,-15.898 -2.723,0 -4.979,0.897 -6.768,2.686 -1.791,1.789 -2.686,3.974 -2.686,6.552 0,5.442 2.667,10.223 8.003,14.342 5.334,4.117 12.872,6.963 22.613,8.539 4.082,5.586 6.695,11.047 7.841,16.383 1.145,5.334 2.042,14.126 2.686,26.372 1.217,25.207 7.966,44.956 20.249,59.243 12.281,14.287 25.62,21.43 40.015,21.43 9.883,0 17.993,-3.133 24.331,-9.399 6.338,-6.268 9.507,-14.27 9.507,-24.009 0,-11.244 -3.33,-21.092 -9.991,-29.541 -6.66,-8.451 -14.324,-12.676 -22.988,-12.676 -4.512,0 -8.057,1.236 -10.635,3.706 -2.578,2.471 -3.867,5.855 -3.867,10.152 0,2.219 0.43,4.797 1.289,7.734 1.934,-2.22 4.367,-3.33 7.305,-3.33 4.869,0 9.131,2.901 12.783,8.701 3.652,5.801 5.479,12.711 5.479,20.733 0,6.158 -1.397,11.01 -4.186,14.555 -2.79,3.545 -6.617,5.318 -11.481,5.318 -5.868,0 -10.429,-2.113 -13.683,-6.338 -3.254,-4.227 -5.525,-9.275 -6.813,-15.148 C -60.977,93.921 -62.35,84.431 -63.807,71.325 -65.264,58.22 -67.699,46.6 -71.11,36.467 -74.522,26.334 -80.897,16.398 -90.234,6.66 c 6.086,0.43 11.368,0.07 15.844,-1.074 4.475,-1.147 10.885,-3.313 19.229,-6.498 8.342,-3.188 15.522,-4.781 21.538,-4.781 11.744,0 22.951,6.015 33.623,18.047 L 0,0 z" />
        </g>
        <g
           id="g26"
           transform="translate(730.084,1489.2402)">
          <path
             style="fill:#6f6f6e;fill-opacity:1;fill-rule:nonzero;stroke:none"
             id="path28"
             inkscape:connector-curvature="0"
             d="m 0,0 c 18.332,5.156 27.5,14.68 27.5,28.575 0,6.875 -2.508,10.312 -7.52,10.312 -4.726,0 -9.238,-3.598 -13.535,-10.796 C 2.148,20.894 0,11.53 0,0 m 56.289,-19.873 c -9.096,-8.953 -17.26,-15.559 -24.492,-19.818 -7.234,-4.26 -15.219,-6.393 -23.955,-6.393 -9.74,0 -17.601,3.115 -23.579,9.346 -5.981,6.23 -8.97,14.429 -8.97,24.599 0,15.182 5.264,28.914 15.791,41.197 10.527,12.281 22.199,18.423 35.02,18.423 6.66,0 11.994,-1.719 16.005,-5.156 4.01,-3.438 6.016,-7.95 6.016,-13.535 0,-14.825 -15.756,-26.856 -47.266,-36.095 2.864,-13.965 10.348,-20.947 22.452,-20.947 4.726,0 9.238,1.272 13.535,3.814 4.297,2.542 10.777,8.18 19.443,16.918 l 0,-12.353 z" />
        </g>
        <g
           id="g30"
           transform="translate(822.4668,1463.459)">
          <path
             style="fill:#6f6f6e;fill-opacity:1;fill-rule:nonzero;stroke:none"
             id="path32"
             inkscape:connector-curvature="0"
             d="m 0,0 c 7.16,0 13.911,6.105 20.249,18.316 6.338,12.209 9.507,23.472 9.507,33.784 0,4.01 -0.897,7.144 -2.686,9.4 -1.791,2.255 -4.189,3.383 -7.197,3.383 -7.162,0 -13.948,-6.088 -20.356,-18.261 -6.411,-12.177 -9.615,-23.384 -9.615,-33.624 0,-3.867 0.949,-7 2.847,-9.398 C -5.354,1.199 -2.938,0 0,0 m 78.633,5.908 c -11.459,-10.887 -19.658,-17.976 -24.6,-21.269 -4.941,-3.293 -9.668,-4.942 -14.179,-4.942 -11.317,0 -16.651,9.99 -16.006,29.971 -7.162,-10.242 -13.769,-17.797 -19.82,-22.666 -6.052,-4.869 -12.299,-7.305 -18.745,-7.305 -6.303,0 -11.655,2.955 -16.059,8.864 -4.405,5.908 -6.607,13.158 -6.607,21.752 0,10.742 2.954,20.982 8.862,30.723 5.909,9.738 13.482,17.617 22.72,23.632 9.239,6.016 17.403,9.024 24.492,9.024 8.952,0 15.217,-4.119 18.799,-12.354 l 21.956,12.139 6.028,0 -9.475,-31.476 C 51.118,26.173 48.677,15.322 48.677,9.45 c 0,-6.157 2.182,-9.235 6.55,-9.235 2.791,0 5.869,1.486 9.233,4.459 3.363,2.971 8.088,7.5 14.173,13.588 l 0,-12.354 z" />
        </g>
        <g
           id="g34"
           transform="translate(952.1416,1530.5947)">
          <path
             style="fill:#6f6f6e;fill-opacity:1;fill-rule:nonzero;stroke:none"
             id="path36"
             inkscape:connector-curvature="0"
             d="m 0,0 c 8.373,7.305 14.938,15.164 19.699,23.579 4.76,8.416 7.14,16.169 7.14,23.26 0,3.008 -0.554,5.479 -1.66,7.412 -1.108,1.934 -2.481,2.901 -4.122,2.901 -3.142,0 -6.338,-4.121 -9.586,-12.36 C 8.221,36.552 4.398,21.622 0,0 m 36.077,-61.228 c -7.439,-8.378 -14.807,-14.841 -22.103,-19.388 -7.297,-4.547 -13.806,-6.822 -19.53,-6.822 -2.718,0 -6.438,1.036 -11.158,3.103 -3.021,-15.748 -5.682,-32.752 -7.983,-51.008 -7.455,-1.004 -16.417,-2.545 -26.882,-4.625 2.291,19.623 6.266,45.082 11.922,76.376 -0.789,1.36 -2.185,4.798 -4.189,10.314 l -7.196,-7.95 -2.471,0 0,9.668 20.479,21.235 c 3.892,19.215 7.056,33.121 9.492,41.715 2.434,8.594 5.836,18.101 10.205,28.521 4.367,10.42 7.125,16.398 8.272,17.939 1.144,1.539 3.92,3.008 8.325,4.404 4.404,1.397 9.112,2.721 14.126,3.975 5.011,1.252 7.697,1.88 8.056,1.88 2.721,0 4.942,-1.771 6.661,-5.313 1.718,-3.541 2.578,-8.209 2.578,-14.003 0,-10.017 -2.644,-19.675 -7.931,-28.975 C 21.463,10.517 11.462,-0.928 -3.254,-14.521 l -9.029,-44.896 c 3.501,-7.51 8.757,-11.264 15.762,-11.264 10.008,0 20.874,7.268 32.598,21.807 l 0,-12.354 z" />
        </g>
        <g
           id="g38"
           transform="translate(1018.082,1511.3696)">
          <path
             style="fill:#6f6f6e;fill-opacity:1;fill-rule:nonzero;stroke:none"
             id="path40"
             inkscape:connector-curvature="0"
             d="m 0,0 c 9.094,10.111 16.471,21.442 22.129,33.994 5.656,12.55 8.486,23.342 8.486,32.379 0,2.654 -0.394,4.787 -1.181,6.402 -0.789,1.613 -1.791,2.42 -3.008,2.42 -2.651,0 -6.499,-6.598 -11.548,-19.794 C 9.829,42.205 4.869,23.737 0,0 m 41.143,-42.002 c -9.741,-8.954 -18.281,-15.559 -25.621,-19.819 -7.341,-4.26 -14.34,-6.392 -21.001,-6.392 -7.664,0 -13.84,2.97 -18.53,8.916 -4.691,5.943 -7.036,13.927 -7.036,23.955 0,15.039 3.258,33.086 9.775,54.141 6.516,21.055 14.43,40.461 23.741,58.222 l 27.285,10.098 c 0.859,0.285 1.504,0.43 1.933,0.43 2.077,0 3.777,-1.523 5.103,-4.566 1.324,-3.045 1.987,-7.143 1.987,-12.299 0,-14.61 -3.367,-28.754 -10.097,-42.432 -6.733,-13.68 -17.26,-28.289 -31.582,-43.829 -0.575,-7.449 -0.86,-12.568 -0.86,-15.361 0,-6.23 1.145,-11.172 3.438,-14.824 2.291,-3.653 5.334,-5.479 9.131,-5.479 3.867,0 7.984,1.397 12.353,4.19 4.367,2.793 11.027,8.593 19.981,17.402 l 0,-12.353 z" />
        </g>
        <g
           id="g42"
           transform="translate(1083.2871,1489.2402)">
          <path
             style="fill:#6f6f6e;fill-opacity:1;fill-rule:nonzero;stroke:none"
             id="path44"
             inkscape:connector-curvature="0"
             d="m 0,0 c 18.332,5.156 27.5,14.68 27.5,28.575 0,6.875 -2.508,10.312 -7.52,10.312 -4.726,0 -9.238,-3.598 -13.535,-10.796 C 2.148,20.894 0,11.53 0,0 m 56.289,-19.873 c -9.096,-8.953 -17.26,-15.559 -24.492,-19.818 -7.234,-4.26 -15.219,-6.393 -23.955,-6.393 -9.74,0 -17.601,3.115 -23.579,9.346 -5.981,6.23 -8.97,14.429 -8.97,24.599 0,15.182 5.264,28.914 15.791,41.197 10.527,12.281 22.199,18.423 35.02,18.423 6.66,0 11.994,-1.719 16.005,-5.156 4.01,-3.438 6.016,-7.95 6.016,-13.535 0,-14.825 -15.756,-26.856 -47.266,-36.095 2.864,-13.965 10.348,-20.947 22.452,-20.947 4.726,0 9.238,1.272 13.535,3.814 4.297,2.542 10.777,8.18 19.443,16.918 l 0,-12.353 z" />
        </g>
        <g
           id="g46"
           transform="translate(1201.4512,1469.3672)">
          <path
             style="fill:#6f6f6e;fill-opacity:1;fill-rule:nonzero;stroke:none"
             id="path48"
             inkscape:connector-curvature="0"
             d="m 0,0 c -9.023,-8.953 -16.83,-15.559 -23.418,-19.818 -6.59,-4.26 -12.855,-6.393 -18.799,-6.393 -6.16,0 -11.155,2.596 -14.985,7.789 -3.832,5.192 -5.747,12.012 -5.747,20.463 0,7.447 1.836,17.28 5.511,29.5 l 4.558,16.262 -8.243,-0.429 3.44,16.865 10.214,0.429 10.086,33.516 28.696,5.89 -11.102,-37.365 15.17,0.86 -3.548,-16.543 -16.664,-1.289 -7.155,-24.071 c -2.488,-8.363 -3.73,-15.02 -3.73,-19.964 0,-3.368 0.843,-6.109 2.528,-8.224 1.685,-2.115 3.853,-3.171 6.508,-3.171 3.659,0 7.281,1.164 10.866,3.492 C -12.229,0.125 -6.957,4.977 0,12.354 L 0,0 z" />
        </g>
      </g>
    </g>
    <g
       id="g50"
       transform="matrix(1.25,0,0,-1.25,-935.55548,2260.1033)">
      <g
         id="g52"
         clip-path="url(#clipPath54)">
        <g
           id="g58">
          <g
             id="g60">
            <path
               style="fill:url(#linearGradient62);stroke:none"
               id="path68"
               inkscape:connector-curvature="0"
               d="m 1235.257,1504.502 c -0.841,-12.783 -1.649,-35.823 8.88,-60.349 l 0,0 c 10.527,-24.527 25.109,-31.592 39.248,-32.542 l 0,0 c 10.794,-0.726 16.416,6.115 20.484,11.662 l 0,0 c 4.065,5.547 13.383,5.295 15.532,20.529 l 0,0 c 2.154,15.235 -4.505,31.078 -19.753,48.833 l 0,0 c -15.251,17.752 -59.113,32.362 -61.347,34.97 l 0,0 c 0,0 -2.201,-10.321 -3.044,-23.103" />
          </g>
        </g>
      </g>
    </g>
    <g
       id="g70"
       transform="matrix(1.25,0,0,-1.25,-935.55548,2260.1033)">
      <g
         id="g72"
         clip-path="url(#clipPath74)">
        <g
           id="g78">
          <g
             id="g80">
            <path
               style="fill:url(#linearGradient82);stroke:none"
               id="path88"
               inkscape:connector-curvature="0"
               d="m 1302.329,1422.085 3.028,3.385 -65.69,97.928 62.662,-101.313 z" />
          </g>
        </g>
      </g>
    </g>
    <g
       id="g90"
       transform="matrix(1.25,0,0,-1.25,-935.55548,2260.1033)">
      <g
         id="g92"
         clip-path="url(#clipPath94)">
        <g
           id="g98"
           transform="translate(987.9053,1387.2871)">
          <path
             style="fill:#3c3c3b;fill-opacity:1;fill-rule:evenodd;stroke:none"
             id="path100"
             inkscape:connector-curvature="0"
             d="m 0,0 c 0.206,1.445 0.411,2.891 0.618,4.337 17.52,9.335 39.344,12.934 57.106,21.945 5.328,-2.395 7.697,1.062 13.379,0.747 2.063,-1.861 -2.593,-4.343 2.974,-3.963 12.655,-1.675 24.973,0.678 37.413,1.747 13.118,1.126 26.155,-0.129 39.025,0.63 4.116,0.245 10.445,5.931 15.484,3.102 2.28,-4.126 -7.433,-4.485 -4.827,-9.045 25.759,-6.053 90.194,-31.682 101.216,-3.81 0.15,-1.694 -1.924,-5.058 1.117,-4.583 21.724,9.726 58.632,30.711 65.132,36.211 7.145,6.045 16.668,5.855 26,8 16.828,3.869 34.77,7.817 49.336,16.288 9.002,-6.247 27.84,-9.36 37.911,-7.172 10.516,2.283 26.821,19.728 35.549,25.902 3.428,2.428 8.456,7.135 12.138,4.464 -2.476,-1.702 0.445,-6.675 -2.599,-5.823 -1.588,3.038 -4.752,-0.466 -7.063,0.121 -8.787,-7.207 -17.921,-13.959 -26.875,-20.946 -4.18,-2.56 4.035,-5.222 -0.867,-6.07 -23.141,-4.596 -58.378,6.927 -72.966,-9.064 -23.113,-7.907 -44.977,-9.914 -67.76,-22.198 -13.087,-7.056 -29.106,-19.897 -42.732,-26.648 -2.308,-1.145 -5.693,-1.549 -8.423,-3.224 -3.323,-2.04 -4.136,-4.602 -6.936,-5.206 -6.98,-1.504 -21.403,2.141 -30.477,3.459 C 192.592,3.604 160.259,15.947 131.687,17.509 120.389,18.127 107.048,16.338 94.273,15.764 67.122,14.542 50.139,13.894 28.368,6.576 19.466,3.582 5.772,-4.355 0,0" />
        </g>
      </g>
    </g>
    <g
       id="g102"
       transform="matrix(1.25,0,0,-1.25,-935.55548,2260.1033)">
      <g
         id="g104">
        <g
           id="g110">
          <g
             id="g112">
            <path
               style="fill:url(#linearGradient114);stroke:none"
               id="path120"
               inkscape:connector-curvature="0"
               d="m 1313.969,1549.528 c -20.873,-33.665 -26.829,-60.173 -19.26,-85.089 l 0,0 c 7.567,-24.916 22.031,-23.794 30.275,-32.009 l 0,0 c 8.246,-8.219 19.432,-18.193 37.299,-14.167 l 0,0 c 23.397,5.276 45.942,20.891 57.156,64.651 l 0,0 c 11.214,43.762 3.861,82.083 -0.879,103.242 l 0,0 c -4.74,21.158 -11.116,37.844 -11.116,37.844 l 0,0 c -3.051,-4.944 -72.6,-40.807 -93.475,-74.472" />
          </g>
        </g>
      </g>
    </g>
    <g
       id="g122"
       transform="matrix(1.25,0,0,-1.25,-935.55548,2260.1033)">
      <g
         id="g124">
        <g
           id="g130">
          <g
             id="g132">
            <path
               style="fill:url(#linearGradient134);stroke:none"
               id="path140"
               inkscape:connector-curvature="0"
               d="m 1321.922,1435.717 4.951,-4.971 79.387,185.864 -84.338,-180.893 z" />
          </g>
        </g>
      </g>
    </g>
  </g>
</svg>
